<svg width="360" height="351" viewBox="0 0 360 351" fill="none" xmlns="http://www.w3.org/2000/svg">
<path d="M271.044 18.9961C298.639 32.4329 322.262 54.7617 338.144 81.6354C354.025 108.509 361.966 139.927 359.584 170.16C357.4 200.393 344.695 229.243 328.218 255.128C311.741 281.014 291.492 303.738 266.478 321.522C241.266 339.306 211.29 351.755 181.909 350.964C152.33 349.976 123.346 335.749 98.134 318.163C72.9221 300.379 51.6805 279.433 34.2108 254.338C16.7411 229.44 3.04329 200.393 0.462536 169.963C-2.11822 139.532 6.21959 107.719 22.4982 80.4498C38.5782 52.9833 62.4006 30.2593 90.1933 17.0201C117.986 3.5833 149.551 -0.368719 181.115 0.0264814C212.481 0.421682 243.649 5.3617 271.044 18.9961Z" fill="#CCCCCC"/>
</svg>
