<svg width="1440" height="312" viewBox="0 0 1440 312" fill="none" xmlns="http://www.w3.org/2000/svg">
<path d="M1272.93 62.9674C1414.06 72.6266 1553.79 104.824 1573.35 152.047C1592.91 199.806 1490.91 262.054 1535.62 334.498C1580.34 407.479 1771.76 489.582 1768.97 548.61C1767.57 608.176 1574.75 644.129 1388.91 648.959C1203.07 653.788 1024.22 628.031 880.297 606.029C734.98 584.028 623.197 565.782 572.895 530.902C522.593 495.485 533.771 443.969 423.386 406.942C313 369.379 82.4483 347.377 -37.7181 298.008C-157.885 249.175 -166.268 173.512 -93.6095 112.337C-19.5535 51.1617 136.942 3.93894 307.411 0.182587C477.88 -3.03715 662.321 37.2095 825.803 51.1617C989.285 65.1139 1131.81 52.7716 1272.93 62.9674Z" fill="#CCCCCC"/>
</svg>
