<svg width="676" height="486" viewBox="0 0 676 486" fill="none" xmlns="http://www.w3.org/2000/svg">
<path d="M561.393 -86.7728C624.722 -75.0096 675.873 -16.6462 711.435 53.4803C747.484 124.059 767.457 206.401 737.253 267.932C706.563 329.01 625.696 368.824 552.137 405.47C478.577 441.665 412.812 474.692 340.227 483.741C267.154 492.337 187.749 476.954 156.572 428.092C125.881 378.777 143.419 295.53 113.215 223.141C83.012 151.205 4.581 90.1271 0.196652 35.8356C-4.18769 -18.9084 65.4746 -66.8659 135.624 -76.3669C205.774 -85.8679 276.41 -56.46 349.483 -59.627C422.555 -62.794 498.063 -98.0835 561.393 -86.7728Z" fill="#CCCCCC"/>
</svg>
