<svg width="349" height="358" viewBox="0 0 349 358" fill="none" xmlns="http://www.w3.org/2000/svg">
<path d="M276.81 24.5895C303.612 42.4335 322.871 71.1822 334.783 102.112C346.497 132.843 350.865 165.755 348.284 198.866C345.504 231.977 335.974 265.484 316.12 292.25C296.266 319.016 265.89 338.842 232.535 349.351C198.982 360.057 162.451 361.247 130.089 350.54C97.9261 339.636 70.1307 316.637 47.2988 289.871C24.2683 262.906 6.20124 231.977 1.43631 199.263C-3.52716 166.35 4.81146 131.654 19.7019 100.129C34.5923 68.803 56.233 40.6491 84.227 23.3999C112.221 6.34891 146.767 -0.193905 181.312 0.00436161C215.66 0.202629 250.007 6.74544 276.81 24.5895Z" fill="#999999"/>
</svg>
