<svg width="349" height="354" viewBox="0 0 349 354" fill="none" xmlns="http://www.w3.org/2000/svg">
<path d="M278.809 33.4882C308.301 56.0506 329.677 88.5088 340.563 123.936C351.647 159.363 352.043 197.758 340.365 231.8C328.489 265.841 304.738 295.529 275.048 317.299C245.359 338.872 209.93 352.726 173.313 353.914C136.894 355.101 99.485 344.018 71.379 321.851C43.273 299.487 24.2717 266.435 12.198 230.612C0.322275 194.987 -5.02182 156.79 6.06223 123.936C17.1463 91.2796 44.4606 64.3631 75.1396 41.9986C106.017 19.832 140.061 2.61338 175.886 0.238393C211.711 -1.93868 249.318 10.9258 278.809 33.4882Z" fill="#666666"/>
</svg>
